<svg width="109" height="119" viewBox="0 0 109 119" fill="none" xmlns="http://www.w3.org/2000/svg">
<path d="M57.3684 75.0947V86.9346C53.7795 85.6817 49.918 85 45.8947 85C26.8845 85 11.4737 100.222 11.4737 119H0C0 93.963 20.5478 73.6667 45.8947 73.6667C49.8566 73.6667 53.7014 74.1625 57.3684 75.0947ZM45.8947 68C26.8771 68 11.4737 52.785 11.4737 34C11.4737 15.215 26.8771 0 45.8947 0C64.9124 0 80.3158 15.215 80.3158 34C80.3158 52.785 64.9124 68 45.8947 68ZM45.8947 56.6667C58.5732 56.6667 68.8421 46.5233 68.8421 34C68.8421 21.4767 58.5732 11.3333 45.8947 11.3333C33.2163 11.3333 22.9474 21.4767 22.9474 34C22.9474 46.5233 33.2163 56.6667 45.8947 56.6667ZM80.3158 90.6667V73.6667H91.7895V90.6667H109V102H91.7895V119H80.3158V102H63.1053V90.6667H80.3158Z" fill="white"/>
</svg>
