<svg width="117" height="84" viewBox="0 0 117 84" fill="none" xmlns="http://www.w3.org/2000/svg">
<path d="M10.6364 10.5H106.364V73.5H10.6364V10.5ZM5.31818 0C2.38106 0 0 2.35053 0 5.25V78.75C0 81.6496 2.38106 84 5.31818 84H111.682C114.619 84 117 81.6496 117 78.75V5.25C117 2.35053 114.619 0 111.682 0H5.31818ZM63.8182 21H95.7273V31.5H63.8182V21ZM90.4091 42H63.8182V52.5H90.4091V42ZM50.5227 31.5C50.5227 38.7487 44.5701 44.625 37.2273 44.625C29.8844 44.625 23.9318 38.7487 23.9318 31.5C23.9318 24.2513 29.8844 18.375 37.2273 18.375C44.5701 18.375 50.5227 24.2513 50.5227 31.5ZM37.2273 49.875C26.9472 49.875 18.6136 58.1017 18.6136 68.25H55.8409C55.8409 58.1017 47.5073 49.875 37.2273 49.875Z" fill="white"/>
</svg>
