<svg width="115" height="110" viewBox="0 0 115 110" fill="none" xmlns="http://www.w3.org/2000/svg">
<path d="M57.5001 0C76.5539 0 92.0001 15.4462 92.0001 34.5V40.25H115V51.75H108.29L103.939 103.977C103.691 106.957 101.2 109.25 98.209 109.25H16.7908C13.8003 109.25 11.309 106.957 11.0606 103.977L6.7045 51.75H0V40.25H23V34.5C23 15.4462 38.4462 0 57.5001 0ZM96.7496 51.75H18.2448L22.08 97.75H92.9144L96.7496 51.75ZM63.2501 63.25V86.25H51.7501V63.25H63.2501ZM40.25 63.25V86.25H28.75V63.25H40.25ZM86.2501 63.25V86.25H74.7501V63.25H86.2501ZM57.5001 11.5C45.1824 11.5 35.1263 21.1828 34.5282 33.3521L34.5 34.5V40.25H80.5001V34.5C80.5001 22.1824 70.8171 12.1263 58.6478 11.5282L57.5001 11.5Z" fill="white"/>
</svg>
