<svg width="20" height="18" viewBox="0 0 20 18" fill="none" xmlns="http://www.w3.org/2000/svg">
<path d="M13.366 0L16.577 5.562L20 5.56218V7.5622L18.833 7.562L18.0764 16.6452C18.0332 17.1635 17.5999 17.5622 17.0798 17.5622H2.92014C2.40005 17.5622 1.96678 17.1635 1.92359 16.6452L1.166 7.562L0 7.5622V5.56218L3.422 5.562L6.63398 0L8.36602 1L5.732 5.562H14.267L11.634 1L13.366 0ZM16.826 7.562L3.173 7.5622L3.84 15.5622H16.159L16.826 7.562ZM11 9.5622V13.5622H9.00002V9.5622H11ZM7 9.5622V13.5622H5V9.5622H7ZM15 9.5622V13.5622H13V9.5622H15Z" fill="white"/>
</svg>
