<svg width="22" height="20" viewBox="0 0 22 20" fill="none" xmlns="http://www.w3.org/2000/svg">
<path d="M18.3788 13.1056C19.9258 9.44204 18.5373 5.11425 15.0042 3.07444C12.4511 1.6004 9.4232 1.69359 7.03452 3.05554L6.04216 1.31873C9.028 -0.383669 12.8128 -0.50016 16.0042 1.34239C20.4949 3.93507 22.2139 9.48474 20.1217 14.1119L21.4635 14.8866L17.2984 17.1007L17.1334 12.3866L18.3788 13.1056ZM3.62961 6.89962C2.08263 10.5632 3.47116 14.891 7.00421 16.9308C9.5573 18.4048 12.5851 18.3117 14.9737 16.9498L15.9661 18.6866C12.9803 20.3889 9.1956 20.5054 6.00421 18.6629C1.51357 16.0702 -0.205433 10.5205 1.88672 5.89336L0.544922 5.11867L4.70999 2.90457L4.87505 7.61867L3.62961 6.89962ZM7.50421 12.0026H13.0042C13.2804 12.0026 13.5042 11.7787 13.5042 11.5026C13.5042 11.2265 13.2804 11.0026 13.0042 11.0026H9.0042C7.6235 11.0026 6.50421 9.88334 6.50421 8.50264C6.50421 7.12194 7.6235 6.00265 9.0042 6.00265H10.0042V5.00265H12.0042V6.00265H14.5042V8.00264H9.0042C8.72807 8.00264 8.50421 8.22654 8.50421 8.50264C8.50421 8.77874 8.72807 9.00264 9.0042 9.00264H13.0042C14.3849 9.00264 15.5042 10.1219 15.5042 11.5026C15.5042 12.8833 14.3849 14.0026 13.0042 14.0026H12.0042V15.0026H10.0042V14.0026H7.50421V12.0026Z" fill="white"/>
</svg>
