<svg width="114" height="87" viewBox="0 0 114 87" fill="none" xmlns="http://www.w3.org/2000/svg">
<path d="M5.66667 0H107.667C110.796 0 113.333 2.14528 113.333 4.79167V81.4581C113.333 84.1045 110.796 86.2498 107.667 86.2498H5.66667C2.53708 86.2498 0 84.1045 0 81.4581V4.79167C0 2.14528 2.53708 0 5.66667 0ZM11.3333 9.58333V76.6664H102V9.58333H11.3333ZM36.8333 52.7081H68.0001C69.5647 52.7081 70.8335 51.6357 70.8335 50.3123C70.8335 48.9893 69.5647 47.9164 68.0001 47.9164H45.3335C37.5093 47.9164 31.1667 42.5536 31.1667 35.9373C31.1667 29.3216 37.5093 23.9583 45.3335 23.9583H51.0001V14.375H62.3335V23.9583H76.5001V33.5414H45.3335C43.7685 33.5414 42.5 34.6143 42.5 35.9373C42.5 37.2607 43.7685 38.3331 45.3335 38.3331H68.0001C75.8241 38.3331 82.1668 43.6964 82.1668 50.3123C82.1668 56.9286 75.8241 62.2914 68.0001 62.2914H62.3335V71.8748H51.0001V62.2914H36.8333V52.7081Z" fill="white"/>
</svg>
